:SAMPLES-PER-SECOND 30
:FRAME-RANGE 1-744
:FULLY-SPECIFIED
:DEGREES
489
root  -51.8003 37.3866 104.245 -161.998 -80.649 159.739
RightUpLeg  -19.5044 -6.31761 -6.83016
RightLeg  71.8025 1.50777 4.28577
RightFoot  1.36665 -0.651849 5.9318
RightToes  -5.28216e-011 1.2921e-014 -6.02303e-014
Spine  -6.02626 -0.493617 -5.36091
Spine1  9.67867 0.18789 -5.67436
HEad  24.8093 -22.3782 2.7271
LeftShoulder1  1.1818 -1.20666 -19.9758
LeftArm  -3.63922 1.70275 -48.975
LeftForeArm  31.0766 6.52602 -12.3013
LeftHand  -0.0212306 5.93987 1.89224
RightShoulder  2.03433 2.69503 27.9655
RightArm  -29.0631 1.41693 53.4119
RightForeArm  71.5841 -4.87134 1.30324
RightHand  0.153535 -6.56213 -16.7522
LeftUpLeg  -11.3797 -2.96831 -2.6016
LeftLeg  21.9084 -0.901926 1.23463
LeftFoot  -9.50484 0.155018 -6.11666
LeftToes  -9.4837e-011 -7.11147e-011 -1.07582e-011
490
root  -53.0223 37.481 104.049 -164.535 -80.6767 162.405
RightUpLeg  -21.9465 -8.02921 -6.24959
RightLeg  67.8477 1.8961 4.45703
RightFoot  -0.0966286 -0.557212 5.64806
RightToes  -5.28216e-011 1.2921e-014 -6.02303e-014
Spine  -5.97008 -1.37313 -6.48947
Spine1  9.21309 -0.976677 -4.4091
HEad  24.0418 -23.4563 2.97339
LeftShoulder1  1.31683 -1.8298 -19.3894
LeftArm  -3.33145 -0.948876 -48.198
LeftForeArm  28.4546 4.92918 -12.2899
LeftHand  -0.0341567 5.05529 3.55273
RightShoulder  1.82097 2.00175 28.3667
RightArm  -30.3287 -3.19615 52.0295
RightForeArm  71.185 -4.83269 0.98225
RightHand  0.169293 -6.71999 -16.2273
LeftUpLeg  -9.1086 -0.132079 -2.064
LeftLeg  21.4111 -3.38634 0.252196
LeftFoot  -11.0361 0.0795096 -5.02783
LeftToes  -9.4837e-011 -7.11147e-011 -1.07582e-011
491
root  -54.2271 37.493 103.823 -166.457 -80.248 164.413
RightUpLeg  -23.9686 -9.67514 -5.72829
RightLeg  62.646 2.05864 3.80057
RightFoot  -3.03934 -0.427831 5.60405
RightToes  -5.28216e-011 1.2921e-014 -6.02303e-014
Spine  -5.66925 -2.12167 -7.55907
Spine1  8.52716 -1.92489 -3.40011
HEad  23.1465 -23.516 3.74
LeftShoulder1  1.37687 -2.15668 -18.9221
LeftArm  -2.6069 -3.75282 -46.8792
LeftForeArm  27.1471 3.46322 -12.4327
LeftHand  -0.0415902 4.68239 3.13679
RightShoulder  1.64892 1.45389 28.692
RightArm  -31.3246 -7.31043 50.5235
RightForeArm  70.7282 -4.80289 0.701204
RightHand  0.150307 -6.5861 -16.1826
LeftUpLeg  -6.91366 1.92734 -1.55612
LeftLeg  21.2199 -4.78775 -0.40775
LeftFoot  -12.6676 0.0285519 -4.09002
LeftToes  -9.4837e-011 -7.11147e-011 -1.07582e-011
492
root  -55.4392 37.4976 103.58 -169.109 -79.335 167.203
RightUpLeg  -25.6837 -11.0129 -4.7414
RightLeg  56.1809 1.29193 1.66707
RightFoot  -5.25503 -0.290692 4.79129
RightToes  -5.28216e-011 1.2921e-014 -6.02303e-014
Spine  -5.52868 -2.65613 -7.78141
Spine1  7.88775 -2.484 -2.7976
HEad  22.5901 -23.815 4.20766
LeftShoulder1  1.42624 -2.40427 -18.6771
LeftArm  -2.59619 -6.34608 -45.3548
LeftForeArm  26.5901 2.36449 -12.3654
LeftHand  -0.038634 4.94801 4.16771
RightShoulder  1.52696 1.09919 28.6986
RightArm  -32.3063 -11.0752 49.2682
RightForeArm  70.7171 -4.74209 0.341651
RightHand  0.168067 -6.69767 -16.3736
LeftUpLeg  -4.59647 3.13944 -1.02663
LeftLeg  20.7101 -4.93182 -0.477913
LeftFoot  -14.0055 0.00477122 -3.4038
LeftToes  -9.4837e-011 -7.11147e-011 -1.07582e-011
493
root  -56.6297 37.5079 103.309 -171.669 -78.1566 170.028
RightUpLeg  -26.9286 -12.0141 -3.50533
RightLeg  48.1647 0.547547 0.333412
RightFoot  -5.11219 -0.276031 4.43019
RightToes  -5.28216e-011 1.2921e-014 -6.02303e-014
Spine  -5.65958 -3.20241 -7.65669
Spine1  7.57179 -2.95729 -2.27078
HEad  21.8096 -23.7299 4.29525
LeftShoulder1  1.44125 -2.54421 -18.3092
LeftArm  -3.00542 -8.43873 -43.7554
LeftForeArm  26.7036 1.45953 -12.1572
LeftHand  -0.0492708 4.50247 3.69182
RightShoulder  1.49031 0.988016 28.7388
RightArm  -33.2536 -13.9916 48.1238
RightForeArm  71.65 -4.62407 -0.134054
RightHand  0.197984 -7.02145 -15.3975
LeftUpLeg  -2.1703 3.94801 -0.427539
LeftLeg  19.7294 -4.54663 -0.348812
LeftFoot  -15.1896 -0.0205964 -3.32213
LeftToes  -9.4837e-011 -7.11147e-011 -1.07582e-011
494
root  -57.8055 37.5194 103.011 -173.794 -76.733 172.483
RightUpLeg  -27.2891 -12.6197 -2.06501
RightLeg  38.4087 -0.119626 -0.360279
RightFoot  -4.07138 -0.263129 3.70336
RightToes  -5.28216e-011 1.2921e-014 -6.02303e-014
Spine  -5.93032 -3.62255 -7.17348
Spine1  7.46776 -3.28092 -1.82041
HEad  21.1937 -23.8599 4.35151
LeftShoulder1  1.48259 -2.7769 -18.026
LeftArm  -3.72538 -9.82708 -42.1012
LeftForeArm  26.4562 0.69077 -11.8867
LeftHand  -0.0512757 4.45563 3.79674
RightShoulder  1.35175 0.594522 28.666
RightArm  -34.3999 -15.8871 47.1649
RightForeArm  72.9739 -4.44374 -0.877573
RightHand  0.305916 -7.8537 -15.3616
LeftUpLeg  0.439187 4.30413 0.00692521
LeftLeg  18.2601 -3.52309 0.133943
LeftFoot  -16.1149 -0.0528658 -3.58442
LeftToes  -9.4837e-011 -7.11147e-011 -1.07582e-011
495
root  -58.9676 37.4974 102.645 -175.524 -75.3312 174.705
RightUpLeg  -26.6783 -12.5557 -0.497528
RightLeg  27.0954 -1.24866 -0.912353
RightFoot  -3.2269 -0.323084 4.24203
RightToes  -5.28216e-011 1.2921e-014 -6.02303e-014
Spine  -6.29474 -4.02583 -6.74789
Spine1  7.30529 -3.66441 -1.18418
HEad  21.002 -24.2162 4.14749
LeftShoulder1  1.50992 -2.93737 -17.8222
LeftArm  -4.09013 -10.6272 -40.4603
LeftForeArm  25.6728 0.228536 -11.7757
LeftHand  -0.0549831 4.36103 3.93258
RightShoulder  1.26266 0.35886 28.4428
RightArm  -35.3579 -17.7506 46.3908
RightForeArm  74.0405 -4.29581 -1.48631
RightHand  0.340157 -8.15741 -15.1515
LeftUpLeg  2.92389 4.72017 0.62604
LeftLeg  16.7597 -2.70022 0.419847
LeftFoot  -17.0059 -0.103689 -4.1543
LeftToes  -9.4837e-011 -7.11147e-011 -1.07582e-011
